<?xml version="1.0" encoding="UTF-8"?>
<svg version="1.1" xmlns="http://www.w3.org/2000/svg" width="337" height="127">
<path d="M0 0 C111.21 0 222.42 0 337 0 C337 41.91 337 83.82 337 127 C225.79 127 114.58 127 0 127 C0 85.09 0 43.18 0 0 Z " fill="#FDFDFE" transform="translate(0,0)"/>
<path d="M0 0 C0.79865479 0.00821777 1.59730957 0.01643555 2.42016602 0.02490234 C13.01701283 0.22637567 19.96468295 2.80517603 29.125 8.25 C28.08472656 9.26126953 28.08472656 9.26126953 27.0234375 10.29296875 C24.93042726 12.37496314 23.00470036 14.54465175 21.1015625 16.80078125 C11.78966265 27.45508747 11.78966265 27.45508747 6.12109375 28.0546875 C3.54920711 27.97806724 0.97809533 27.8159329 -1.58203125 27.55859375 C-7.13807398 27.03792071 -9.93427298 29.03140396 -14.5625 31.9375 C-19.7533183 37.1283183 -21.15503942 41.92171723 -21.4375 49.25 C-21.21160724 56.53309405 -19.44975395 60.69353123 -14.34765625 65.76953125 C-8.83378476 70.6380132 -5.15249505 71.46369845 2.0625 71.0625 C3.11727539 70.98612305 3.11727539 70.98612305 4.19335938 70.90820312 C8.2608475 70.75953205 9.78130689 70.93692323 12.84375 73.7265625 C13.5965625 74.55929688 14.349375 75.39203125 15.125 76.25 C19.26915243 77.37514088 22.96487504 76.90080181 26.6875 74.8125 C28.77580181 71.08987504 29.25014088 67.39415243 28.125 63.25 C27.31546875 62.50234375 26.5059375 61.7546875 25.671875 60.984375 C21.75710732 56.78140356 21.88502794 53.10173483 21.75805664 47.56225586 C22.16226305 40.1547826 25.8014776 36.2325566 31.0625 31.3125 C33.19287746 29.42417463 35.33274195 27.56817149 37.54272461 25.77368164 C39.38886822 24.23173595 39.38886822 24.23173595 40.125 21.25 C40.785 21.25 41.445 21.25 42.125 21.25 C49.63056782 33.79883474 52.21747866 45.61659587 49.375 60.1875 C46.2445663 71.64401778 40.02865037 82.45490866 30.125 89.25 C16.38046612 96.97147155 4.43547424 100.3656409 -11.26171875 97.66796875 C-24.6325332 93.75847828 -35.59102422 84.58502387 -42.3984375 72.55859375 C-48.19106123 60.78918772 -50.13418717 46.80381622 -46.3125 34.125 C-40.48790994 18.59959622 -30.47555689 9.33844001 -15.875 2.25 C-10.4743175 0.31049393 -5.66306168 -0.07042273 0 0 Z " fill="#1B04AE" transform="translate(47.875,6.75)"/>
<path d="M0 0 C1.9375 1 1.9375 1 3 3 C3.14314503 11.01612175 -0.61545293 18.44591161 -6.10546875 24.2109375 C-7.16701172 25.25121094 -7.16701172 25.25121094 -8.25 26.3125 C-14.34647278 32.74637299 -14.12712991 41.54586118 -14 50 C-13.52949219 49.09636719 -13.05898437 48.19273438 -12.57421875 47.26171875 C-11.94560122 46.07016014 -11.31667891 44.87876228 -10.6875 43.6875 C-10.37876953 43.09259766 -10.07003906 42.49769531 -9.75195312 41.88476562 C-6.61292288 35.9701718 -6.61292288 35.9701718 -4 34 C-0.9375 33.6875 -0.9375 33.6875 2 34 C4 36 4 36 4.22705078 37.87939453 C4.21657715 38.62302246 4.20610352 39.36665039 4.1953125 40.1328125 C4.18886719 40.93847656 4.18242187 41.74414062 4.17578125 42.57421875 C4.15902344 43.41597656 4.14226562 44.25773437 4.125 45.125 C4.11597656 45.97449219 4.10695313 46.82398438 4.09765625 47.69921875 C4.07405647 49.79959884 4.03818483 51.89983444 4 54 C4.96019364 52.41779413 5.91807798 50.83418669 6.875 49.25 C7.40867187 48.36828125 7.94234375 47.4865625 8.4921875 46.578125 C10.99313084 42.30190064 12.41715399 38.63311058 13.4375 33.8046875 C14 32 14 32 16 30 C18.625 29.875 18.625 29.875 21 30 C22.29642537 34.40784626 21.45173063 36.7254598 20 41 C19.54147009 44.32434186 19.25127028 47.65413785 19 51 C22.83399908 49.52794396 24.17752164 47.58125389 26.1875 44.0625 C26.69667969 43.18722656 27.20585937 42.31195313 27.73046875 41.41015625 C29.10205451 38.96440258 29.10205451 38.96440258 30 36 C30.66 36 31.32 36 32 36 C30.53291432 41.72163415 27.58811438 46.36860237 24 51 C21.20129973 52.39935013 19.09501208 52.25265405 16 52 C13.18577374 50.0591543 12.72745437 48.23016434 12 45 C11.27683594 46.26457031 11.27683594 46.26457031 10.5390625 47.5546875 C9.90742188 48.65039062 9.27578125 49.74609375 8.625 50.875 C7.99851562 51.96554688 7.37203125 53.05609375 6.7265625 54.1796875 C5 57 5 57 3 59 C-0.0625 59.1875 -0.0625 59.1875 -3 59 C-4 58 -4 58 -4.11352539 55.95874023 C-4.10828857 55.08419189 -4.10305176 54.20964355 -4.09765625 53.30859375 C-4.09443359 52.36435547 -4.09121094 51.42011719 -4.08789062 50.44726562 C-4.07532227 48.95743164 -4.07532227 48.95743164 -4.0625 47.4375 C-4.05798828 46.44041016 -4.05347656 45.44332031 -4.04882812 44.41601562 C-4.03700007 41.94395151 -4.02051849 39.47200482 -4 37 C-7.23706912 41.92628907 -9.90643057 46.72593973 -12.125 52.1875 C-13.82455235 56.35369995 -15.58180896 60.20100757 -18 64 C-19.32 63.67 -20.64 63.34 -22 63 C-22.33 57.39 -22.66 51.78 -23 46 C-25.7033285 50.37506303 -25.7033285 50.37506303 -28.38330078 54.7644043 C-31.08826128 59.05565313 -33.83442918 62.07073496 -38 65 C-41.625 65.1875 -41.625 65.1875 -45 64 C-52.11550548 56.48918866 -52.4501533 45.30007676 -52.22265625 35.5078125 C-51.94383196 31.11510697 -51.31697843 27.19175422 -50 23 C-49.61521484 21.66001953 -49.61521484 21.66001953 -49.22265625 20.29296875 C-46.67182912 12.29015916 -42.94716235 6.65829301 -35.9375 1.9375 C-32.45775802 0.82694405 -30.47029291 0.89581589 -27 2 C-24.71037259 5.43444111 -24.89694354 6.95635699 -25.51953125 10.93359375 C-26.59417876 15.55545173 -28.05824557 18.37216372 -32 21 C-30 16 -30 16 -28.875 13.6875 C-27.67650251 10.00640056 -27.86903621 6.86343193 -28 3 C-31.9927157 4.29493482 -33.74738641 5.47652688 -36 9 C-42.4505062 24.90818788 -43.17341998 43.03372752 -42 60 C-41.67 60.66 -41.34 61.32 -41 62 C-38.1255121 61.66153641 -36.42000882 61.37282721 -34.2265625 59.42578125 C-26.54769741 49.29342512 -21.89795607 39.75085163 -20.05493164 27.27001953 C-18.51979989 17.13976711 -15.42388402 8.25890882 -8 1 C-5.20129973 -0.39935013 -3.09501208 -0.25265405 0 0 Z " fill="#220EB0" transform="translate(268,19)"/>
<path d="M0 0 C2.28962741 3.43444111 2.10305646 4.95635699 1.48046875 8.93359375 C0.40582124 13.55545173 -1.05824557 16.37216372 -5 19 C-3 14 -3 14 -1.875 11.6875 C-0.67650251 8.00640056 -0.86903621 4.86343193 -1 1 C-4.9927157 2.29493482 -6.74738641 3.47652688 -9 7 C-15.4505062 22.90818788 -16.17341998 41.03372752 -15 58 C-14.67 58.66 -14.34 59.32 -14 60 C-11.06777026 59.66417198 -9.40478001 59.36806131 -7.19140625 57.35546875 C-2.61913102 51.27006647 0.81054696 44.90464011 4 38 C4.66 38.66 5.32 39.32 6 40 C5.7314561 43.89388656 3.4108988 46.08154355 1 49 C-0.15220785 50.68315399 -1.29746586 52.3710768 -2.4375 54.0625 C-7.38698326 61.10316621 -7.38698326 61.10316621 -11 63 C-14.5625 63.125 -14.5625 63.125 -18 62 C-25.11550548 54.48918866 -25.4501533 43.30007676 -25.22265625 33.5078125 C-24.94383196 29.11510697 -24.31697843 25.19175422 -23 21 C-22.61521484 19.66001953 -22.61521484 19.66001953 -22.22265625 18.29296875 C-19.67182912 10.29015916 -15.94716235 4.65829301 -8.9375 -0.0625 C-5.45775802 -1.17305595 -3.47029291 -1.10418411 0 0 Z " fill="#220DB0" transform="translate(241,21)"/>
<path d="M0 0 C0.78375 0.04125 1.5675 0.0825 2.375 0.125 C4.83601732 3.89986721 4.71796821 7.70923854 4.6875 12.0625 C4.68339111 13.27172119 4.68339111 13.27172119 4.67919922 14.50537109 C4.55120018 22.45749506 3.80873168 30.3420128 3 38.25 C2.87407471 39.48226318 2.74814941 40.71452637 2.6184082 41.98413086 C1.90737557 48.49151926 0.94681672 54.76939327 -0.625 61.125 C0.85416667 61.25 2.33333333 61.375 3.8125 61.5 C6.30859375 61.7109375 6.30859375 61.7109375 8.375 62.125 C8.705 62.785 9.035 63.445 9.375 64.125 C8.36179688 64.11339844 7.34859375 64.10179687 6.3046875 64.08984375 C4.95312686 64.08045791 3.6015642 64.07135857 2.25 64.0625 C1.58484375 64.05412109 0.9196875 64.04574219 0.234375 64.03710938 C-3.83181354 64.01717708 -7.6370092 64.33609839 -11.625 65.125 C-11.295 64.135 -10.965 63.145 -10.625 62.125 C-9.635 62.125 -8.645 62.125 -7.625 62.125 C-7.57601562 61.49078125 -7.52703125 60.8565625 -7.4765625 60.203125 C-7.09271703 55.41167465 -6.69852531 50.63087303 -6.11328125 45.859375 C-4.74243009 34.27922593 -4.46939232 22.90466464 -4.69897461 11.2421875 C-4.71581299 10.0871875 -4.73265137 8.9321875 -4.75 7.7421875 C-4.77320312 6.70690918 -4.79640625 5.67163086 -4.8203125 4.60498047 C-4.53763541 1.01568818 -3.57801008 0.17038143 0 0 Z " fill="#230FB1" transform="translate(124.625,19.875)"/>
<path d="M0 0 C0.78375 0.04125 1.5675 0.0825 2.375 0.125 C3.67142537 4.53284626 2.82673063 6.8504598 1.375 11.125 C0.91647009 14.44934186 0.62627028 17.77913785 0.375 21.125 C4.20899908 19.65294396 5.55252164 17.70625389 7.5625 14.1875 C8.32626953 12.87458984 8.32626953 12.87458984 9.10546875 11.53515625 C10.47705451 9.08940258 10.47705451 9.08940258 11.375 6.125 C12.035 6.125 12.695 6.125 13.375 6.125 C11.90791432 11.84663415 8.96311438 16.49360237 5.375 21.125 C2.57629973 22.52435013 0.47001208 22.37765405 -2.625 22.125 C-5.43922626 20.1841543 -5.89754563 18.35516434 -6.625 15.125 C-7.10710937 15.96804687 -7.58921875 16.81109375 -8.0859375 17.6796875 C-8.71757812 18.77539062 -9.34921875 19.87109375 -10 21 C-10.62648438 22.09054688 -11.25296875 23.18109375 -11.8984375 24.3046875 C-13.625 27.125 -13.625 27.125 -15.625 29.125 C-18.6875 29.3125 -18.6875 29.3125 -21.625 29.125 C-22.625 28.125 -22.625 28.125 -22.73852539 26.08374023 C-22.73328857 25.20919189 -22.72805176 24.33464355 -22.72265625 23.43359375 C-22.71943359 22.48935547 -22.71621094 21.54511719 -22.71289062 20.57226562 C-22.70451172 19.57904297 -22.69613281 18.58582031 -22.6875 17.5625 C-22.68298828 16.56541016 -22.67847656 15.56832031 -22.67382812 14.54101562 C-22.66200007 12.06895151 -22.64551849 9.59700482 -22.625 7.125 C-25.92663396 12.14632089 -28.64092626 17.07049606 -30.9375 22.625 C-31.33291992 23.57246094 -31.33291992 23.57246094 -31.73632812 24.5390625 C-32.3721778 26.06510171 -32.9995429 27.59467197 -33.625 29.125 C-33.955 29.125 -34.285 29.125 -34.625 29.125 C-34.91796875 23.16796875 -34.91796875 23.16796875 -34.625 21.125 C-33.65975197 20.09141583 -32.65335127 19.09582113 -31.625 18.125 C-30.57953094 16.31720976 -29.58279655 14.48073082 -28.625 12.625 C-25.32903147 6.23906096 -25.32903147 6.23906096 -22.625 4.125 C-19.5625 3.8125 -19.5625 3.8125 -16.625 4.125 C-14.625 6.125 -14.625 6.125 -14.39794922 8.00439453 C-14.40842285 8.74802246 -14.41889648 9.49165039 -14.4296875 10.2578125 C-14.43613281 11.06347656 -14.44257813 11.86914062 -14.44921875 12.69921875 C-14.46597656 13.54097656 -14.48273438 14.38273437 -14.5 15.25 C-14.50902344 16.09949219 -14.51804687 16.94898437 -14.52734375 17.82421875 C-14.55094353 19.92459884 -14.58681517 22.02483444 -14.625 24.125 C-13.66480636 22.54279413 -12.70692202 20.95918669 -11.75 19.375 C-11.21632813 18.49328125 -10.68265625 17.6115625 -10.1328125 16.703125 C-7.63186916 12.42690064 -6.20784601 8.75811058 -5.1875 3.9296875 C-4.227252 0.84889183 -3.18152698 0.15150128 0 0 Z " fill="#2613B2" transform="translate(286.625,48.875)"/>
<path d="M0 0 C1.65 0 3.3 0 5 0 C4.72217314 3.98218499 4.20726652 5.74909842 1.625 8.875 C-1 11 -1 11 -4 11 C-4 18.92 -4 26.84 -4 35 C-5.65 34.67 -7.3 34.34 -9 34 C-9.33 33.34 -9.66 32.68 -10 32 C-10.639375 32.495 -11.27875 32.99 -11.9375 33.5 C-16.02721887 35.50312761 -19.52245 35.8922654 -24 35 C-26.75569447 32.81840855 -28.43588747 31.12822506 -30 28 C-30.08471364 26.18658158 -30.10721083 24.37005839 -30.09765625 22.5546875 C-30.09443359 21.47832031 -30.09121094 20.40195312 -30.08789062 19.29296875 C-30.07951172 18.16503906 -30.07113281 17.03710938 -30.0625 15.875 C-30.05798828 14.73933594 -30.05347656 13.60367188 -30.04882812 12.43359375 C-30.03701615 9.62234362 -30.02054507 6.8111977 -30 4 C-28.35 4 -26.7 4 -25 4 C-24.98018066 4.68102783 -24.96036133 5.36205566 -24.93994141 6.0637207 C-24.84473017 9.14703917 -24.73503534 12.22967649 -24.625 15.3125 C-24.5940625 16.38435547 -24.563125 17.45621094 -24.53125 18.56054688 C-24.49257812 19.58857422 -24.45390625 20.61660156 -24.4140625 21.67578125 C-24.3826416 22.62364502 -24.3512207 23.57150879 -24.31884766 24.5480957 C-24.1510949 27.2530269 -24.1510949 27.2530269 -22 30 C-16.70014375 30.65177042 -16.70014375 30.65177042 -12.0625 28.625 C-10.18402274 25.75203478 -9.83444459 23.83460653 -9.68359375 20.4296875 C-9.64169922 19.53378906 -9.59980469 18.63789062 -9.55664062 17.71484375 C-9.51732422 16.77769531 -9.47800781 15.84054688 -9.4375 14.875 C-9.39431641 13.93011719 -9.35113281 12.98523437 -9.30664062 12.01171875 C-9.20040928 9.67462908 -9.09836824 7.3374317 -9 5 C-7.68 5 -6.36 5 -5 5 C-5 5.99 -5 6.98 -5 8 C-2.20127563 5.47211993 -0.54226981 3.79588866 0 0 Z " fill="#2513B1" transform="translate(169,36)"/>
<path d="M0 0 C1.65 0.33 3.3 0.66 5 1 C4.34 9.25 3.68 17.5 3 26 C3.99 26.33 4.98 26.66 6 27 C5 28 5 28 2.6875 28.375 C0 28 0 28 -2.13671875 26.0390625 C-4.65799864 21.92678629 -4.59211414 18.72852587 -4.5 14 C-4.51546875 13.2059375 -4.5309375 12.411875 -4.546875 11.59375 C-4.51926889 7.45283365 -4.31692979 5.47783261 -1.96875 1.9375 C-1.3190625 1.298125 -0.669375 0.65875 0 0 Z " fill="#2511B1" transform="translate(176,48)"/>
<path d="M0 0 C1.89255458 3.78510916 0.9285214 7.99539543 0 12 C-2.07512221 16.36763818 -4.13642941 20.09645062 -8.578125 22.25 C-11 23 -11 23 -13 23 C-12.43682956 15.53799166 -10.92320814 7.6071057 -6.11328125 1.671875 C-4 0 -4 0 0 0 Z " fill="#EAE8F7" transform="translate(240,22)"/>
<path d="M0 0 C1.32 0.33 2.64 0.66 4 1 C3.78537109 2.48693359 3.78537109 2.48693359 3.56640625 4.00390625 C2.99860104 7.9785427 2.46480587 11.95731719 1.9375 15.9375 C1.84662109 16.62134766 1.75574219 17.30519531 1.66210938 18.00976562 C1.44110203 19.67313669 1.22050715 21.33656255 1 23 C4.09718696 20.16752987 5.95667709 17.53590391 7.75 13.75 C8.17796875 12.85796875 8.6059375 11.9659375 9.046875 11.046875 C9.36140625 10.37140625 9.6759375 9.6959375 10 9 C10.66 9.33 11.32 9.66 12 10 C11.0960603 11.94347036 10.176325 13.87959907 9.25 15.8125 C8.73953125 16.89144531 8.2290625 17.97039063 7.703125 19.08203125 C6.02793963 21.95213096 4.86948781 23.38234054 2 25 C-0.625 24.875 -0.625 24.875 -3 24 C-3.66 23.01 -4.32 22.02 -5 21 C-5.99 22.32 -6.98 23.64 -8 25 C-7.01683586 19.66778038 -5.9060176 14.37886095 -4.5625 9.125 C-4.33691406 8.24070312 -4.11132812 7.35640625 -3.87890625 6.4453125 C-2.94925224 3.85880845 -1.75311352 2.09982957 0 0 Z " fill="#301EB5" transform="translate(192,46)"/>
<path d="M0 0 C1.32 0.66 2.64 1.32 4 2 C3.66570071 12.36327797 -1.23174196 19.43547631 -8 27 C-9.30630641 23.08108076 -8.36066557 20.1879176 -7.375 16.3125 C-7.19549805 15.59513672 -7.01599609 14.87777344 -6.83105469 14.13867188 C-5.38401701 8.71043172 -3.39289406 4.52385874 0 0 Z " fill="#F0EFF9" transform="translate(265,20)"/>
<path d="M0 0 C0.66 0.66 1.32 1.32 2 2 C1.7314561 5.89388656 -0.5891012 8.08154355 -3 11 C-4.15220785 12.68315399 -5.29746586 14.3710768 -6.4375 16.0625 C-11.38698326 23.10316621 -11.38698326 23.10316621 -15 25 C-18.8125 24.75 -18.8125 24.75 -22 24 C-21.34 23.67 -20.68 23.34 -20 23 C-19.67 22.01 -19.34 21.02 -19 20 C-18.67 20.66 -18.34 21.32 -18 22 C-15.06777026 21.66417198 -13.40478001 21.36806131 -11.19140625 19.35546875 C-6.61913102 13.27006647 -3.18945304 6.90464011 0 0 Z " fill="#3E30BA" transform="translate(245,59)"/>
<path d="M0 0 C2.28962741 3.43444111 2.10305646 4.95635699 1.48046875 8.93359375 C0.40582124 13.55545173 -1.05824557 16.37216372 -5 19 C-3 14 -3 14 -1.875 11.6875 C-0.67650251 8.00640056 -0.86903621 4.86343193 -1 1 C-2.98 1.66 -4.96 2.32 -7 3 C-7 2.34 -7 1.68 -7 1 C-7.66 0.67 -8.32 0.34 -9 0 C-5.46474216 -1.17841928 -3.5797952 -0.91399027 0 0 Z " fill="#4838BE" transform="translate(241,21)"/>
<path d="M0 0 C0.66 0.66 1.32 1.32 2 2 C-2.455 8.93 -2.455 8.93 -7 16 C-7.66 15.67 -8.32 15.34 -9 15 C-9 13.02 -9 11.04 -9 9 C-8.01 10.485 -8.01 10.485 -7 12 C-6.01993141 10.37554381 -5.04097364 8.75041739 -4.0625 7.125 C-3.51722656 6.22007813 -2.97195313 5.31515625 -2.41015625 4.3828125 C-1.56101983 2.94798364 -0.74562276 1.49124552 0 0 Z " fill="#5446C2" transform="translate(279,61)"/>
<path d="M0 0 C1.65 0.33 3.3 0.66 5 1 C3.515 3.475 3.515 3.475 2 6 C0.68 5.34 -0.64 4.68 -2 4 C-1.34 2.68 -0.68 1.36 0 0 Z " fill="#2B19B3" transform="translate(168,40)"/>
<path d="M0 0 C0 0.99 0 1.98 0 3 C-0.33 2.34 -0.66 1.68 -1 1 C-2.98 1.66 -4.96 2.32 -7 3 C-7 2.34 -7 1.68 -7 1 C-7.66 0.67 -8.32 0.34 -9 0 C-5.52176885 -1.15941038 -3.54104422 -0.70820884 0 0 Z " fill="#5B4EC5" transform="translate(241,21)"/>
<path d="M0 0 C0.99 0 1.98 0 3 0 C2.67 1.65 2.34 3.3 2 5 C1.01 5 0.02 5 -1 5 C-0.67 3.35 -0.34 1.7 0 0 Z " fill="#2314B1" transform="translate(288,41)"/>
</svg>
