<?xml version="1.0" encoding="UTF-8"?>
<svg version="1.1" xmlns="http://www.w3.org/2000/svg" width="191" height="191">
<path d="M0 0 C63.03 0 126.06 0 191 0 C191 63.03 191 126.06 191 191 C127.97 191 64.94 191 0 191 C0 127.97 0 64.94 0 0 Z " fill="#1901AD" transform="translate(0,0)"/>
<path d="M0 0 C28.38 0 56.76 0 86 0 C86 63.03 86 126.06 86 191 C22.97 191 -40.06 191 -105 191 C-105 162.95 -105 134.9 -105 106 C-104.67 106 -104.34 106 -104 106 C-103.88519287 106.55236328 -103.77038574 107.10472656 -103.65209961 107.67382812 C-97.78489919 135.35027525 -86.48472322 158.27043223 -62.4375 174.4375 C-46.78995994 184.5577407 -30.27070419 189.19190736 -11.7199707 189.29516602 C-10.29766824 189.30659336 -8.87540543 189.32689566 -7.45336914 189.35668945 C5.61860934 189.62975331 17.13221467 187.14965644 29.125 181.75 C29.79112305 181.4519043 30.45724609 181.15380859 31.14355469 180.84667969 C53.59691419 170.47613522 67.88557328 153.05555884 78 131 C78.50789062 129.95457031 79.01578125 128.90914062 79.5390625 127.83203125 C83.84534243 117.46554582 84.52371731 106.78284654 84.4375 95.6875 C84.43445862 95.00712677 84.43141724 94.32675354 84.42828369 93.62576294 C84.3594917 83.21325405 83.69412601 73.80189878 80 64 C79.76442383 63.37335449 79.52884766 62.74670898 79.28613281 62.10107422 C76.80301056 55.62385793 73.96925136 49.6972444 70 44 C63.00857358 49.85847941 56.51268341 56.16064914 50.02685547 62.56811523 C48.66743195 63.90576047 47.30177011 65.23709319 45.93017578 66.56225586 C43.93891516 68.48691993 41.9677819 70.43027938 40 72.37890625 C39.3824585 72.9686171 38.76491699 73.55832794 38.12866211 74.16590881 C36.21601119 76.0191416 36.21601119 76.0191416 34 79 C33.97105893 81.63895879 33.97105893 81.63895879 35 84 C36.06457999 96.54722062 35.394876 107.53588851 30 119 C30.58265625 119.26554687 31.1653125 119.53109375 31.765625 119.8046875 C35.58199816 121.8463137 38.43969874 124.51743969 41 128 C42.23076923 132.61538462 42.23076923 132.61538462 41 136 C36.51761315 142.84364421 29.48525405 152.25737297 22 156 C17.49097321 156.54325624 15.600967 156.43461454 11.8671875 153.734375 C10.85282062 152.75689419 9.85553344 151.76141638 8.875 150.75 C7.38383353 149.28195239 5.88898842 147.81804985 4.38793945 146.36010742 C3.14801781 145.14504965 1.93348137 143.90421156 0.72265625 142.66015625 C-3.27829296 140.22055307 -6.84850418 140.62149301 -11.4375 140.6875 C-24.14548344 140.44864114 -33.85187237 136.11017648 -43.10546875 127.1484375 C-52.2541688 116.77362301 -55.7512445 104.17014973 -55.31640625 90.5078125 C-54.22643967 78.42398545 -48.400887 68.45168123 -39.70703125 60.11328125 C-31.26552811 53.5233055 -22.06540952 49.81460221 -11.375 49.875 C-10.38306641 49.86919922 -10.38306641 49.86919922 -9.37109375 49.86328125 C-3.5968991 49.87436416 -3.5968991 49.87436416 -0.68487549 50.48728943 C3.04103995 51.2161559 5.79172276 51.6695101 9.19674683 49.78277588 C11.42492517 47.88022872 13.41642905 45.8738632 15.4140625 43.73046875 C16.52483658 42.60346306 16.52483658 42.60346306 17.65805054 41.45368958 C20.00732434 39.05625798 22.31505442 36.62278214 24.625 34.1875 C26.2150016 32.55945621 27.80742648 30.93377532 29.40234375 29.31054688 C32.29498696 26.34185835 35.18544595 23.37167004 38.03759766 20.36401367 C38.61144196 19.76143234 39.18528625 19.15885101 39.77651978 18.53800964 C41.20751445 17.0666871 41.20751445 17.0666871 41 15 C27.94248456 7.74182245 14.796294 3.24544398 0 1 C0 0.67 0 0.34 0 0 Z " fill="#FDFCFE" transform="translate(105,0)"/>
<path d="M0 0 C27.72 0 55.44 0 84 0 C84 0.33 84 0.66 84 1 C82.83984375 1.23074219 81.6796875 1.46148437 80.484375 1.69921875 C71.19874074 3.61035155 62.56158023 5.79882401 54 10 C53.06800781 10.45246094 52.13601562 10.90492187 51.17578125 11.37109375 C44.43980123 14.83772782 38.75473519 19.10173878 33 24 C32.31164063 24.54269531 31.62328125 25.08539062 30.9140625 25.64453125 C13.83155798 39.51984619 3.67728097 62.52597555 1 84 C0.67 84 0.34 84 0 84 C0 56.28 0 28.56 0 0 Z " fill="#FDFDFE" transform="translate(0,0)"/>
<path d="M0 0 C0 3 0 3 -1.75 5.04296875 C-2.4925 5.75066406 -3.235 6.45835938 -4 7.1875 C-4.7425 7.90292969 -5.485 8.61835938 -6.25 9.35546875 C-7.11625 10.16951172 -7.11625 10.16951172 -8 11 C-8.66 10.67 -9.32 10.34 -10 10 C-8.90033225 8.70450101 -7.79508199 7.41373929 -6.6875 6.125 C-6.07261719 5.40570312 -5.45773438 4.68640625 -4.82421875 3.9453125 C-3 2 -3 2 0 0 Z " fill="#2D1DB4" transform="translate(33,23)"/>
</svg>
